USFL
nRows=242
nColumns=2
inDegrees=yes
endheader
time	tib_ant_r	
2.59476	 82.926068	
2.62802	 82.918105	
2.66129	 82.920604	
2.69456	 82.923692	
2.72782	 82.919700	
2.76109	 82.932857	
2.79435	 82.907649	
2.82762	 82.896995	
2.86089	 82.892737	
2.89415	 82.892351	
2.92742	 82.895306	
2.96069	 82.925231	
2.99395	 82.894258	
3.02722	 82.908851	
3.06048	 82.945051	
3.09375	 82.951144	
3.12702	 82.927717	
3.16028	 82.917334	
3.19355	 82.944486	
3.22681	 82.920546	
3.26008	 82.915329	
3.29335	 82.944727	
3.32661	 82.869044	
3.35988	 82.860672	
3.39315	 82.892440	
3.42641	 82.812374	
3.45968	 82.724350	
3.49294	 82.704374	
3.52621	 82.692580	
3.55948	 82.662296	
3.59274	 82.675195	
3.62601	 82.727501	
3.65927	 82.761094	
3.69254	 82.847174	
3.72581	 82.987613	
3.75907	 82.993857	
3.79234	 82.969659	
3.8256	 82.978900	
3.85887	 82.983425	
3.89214	 82.999350	
3.9254	 83.016368	
3.95867	 83.024265	
3.99194	 82.970072	
4.0252	 83.019410	
4.05847	 83.087090	
4.09173	 83.119878	
4.125	 83.070638	
4.15827	 83.064531	
4.19153	 83.043325	
4.2248	 83.106838	
4.25806	 83.082929	
4.29133	 83.082312	
4.3246	 83.133013	
4.35786	 83.088373	
4.39113	 83.138052	
4.4244	 83.133985	
4.45766	 83.166289	
4.49093	 83.189296	
4.52419	 83.204199	
4.55746	 83.194652	
4.59073	 83.192211	
4.62399	 83.230815	
4.65726	 83.273290	
4.69052	 83.263963	
4.72379	 82.952691	
4.75706	 82.575500	
4.79032	 82.823146	
4.82359	 83.002083	
4.85685	 82.974529	
4.89012	 70.102035	
4.92339	 70.368129	
4.95665	 70.354045	
4.98992	 70.366647	
5.02319	 70.447163	
5.05645	 70.328378	
5.08972	 69.792708	
5.12298	 65.340171	
5.15625	 65.248570	
5.18952	 64.977268	
5.22278	 64.872464	
5.25605	 64.759712	
5.28931	 64.600997	
5.32258	 57.150794	
5.35585	 57.133655	
5.38911	 57.164351	
5.42238	 57.016193	
5.45565	 56.993643	
5.48891	 56.986559	
5.52218	 57.035541	
5.55544	 57.109554	
5.58871	 57.055747	
5.62198	 56.948823	
5.65524	 56.983062	
5.68851	 57.043496	
5.72177	 57.015810	
5.75504	 56.929349	
5.78831	 57.025619	
5.82157	 56.990597	
5.85484	 57.031757	
5.8881	 57.030462	
5.92137	 57.029958	
5.95464	 56.953913	
5.9879	 56.957059	
6.02117	 57.027614	
6.05444	 57.035641	
6.0877	 57.050520	
6.12097	 57.039062	
6.15423	 57.027066	
6.1875	 57.003261	
6.22077	 57.034990	
6.25403	 56.981722	
6.2873	 57.054975	
6.32056	 57.006028	
6.35383	 56.912041	
6.3871	 56.809143	
6.42036	 56.798228	
6.45363	 56.814987	
6.4869	 56.825740	
6.52016	 56.892869	
6.55343	 56.941546	
6.58669	 57.024562	
6.61996	 56.884524	
6.65323	 56.889204	
6.68649	 56.904987	
6.71976	 56.832896	
6.75302	 56.839878	
6.78629	 56.854734	
6.81956	 56.876358	
6.85282	 56.895295	
6.88609	 56.813425	
6.91935	 56.842795	
6.95262	 56.814446	
6.98589	 56.820049	
7.01915	 56.808338	
7.05242	 56.781270	
7.08569	 56.800049	
7.11895	 56.799214	
7.15222	 56.830861	
7.18548	 56.808856	
7.21875	 56.846647	
7.25202	 56.835690	
7.28528	 56.805042	
7.31855	 56.850837	
7.35181	 56.790328	
7.38508	 56.776800	
7.41835	 56.781609	
7.45161	 56.733402	
7.48488	 56.806282	
7.51815	 56.777575	
7.55141	 56.820224	
7.58468	 56.825786	
7.61794	 56.812657	
7.65121	 56.804244	
7.68448	 56.791705	
7.71774	 56.794649	
7.75101	 56.789195	
7.78427	 56.755521	
7.81754	 56.786519	
7.85081	 56.754264	
7.88407	 56.853358	
7.91734	 56.845399	
7.9506	 56.784963	
7.98387	 56.886391	
8.01714	 56.900121	
8.0504	 56.971695	
8.08367	 56.921295	
8.11694	 56.942609	
8.1502	 57.024310	
8.18347	 56.976876	
8.21673	 57.126753	
8.25	 57.127271	
8.28327	 57.051455	
8.31653	 57.096691	
8.3498	 57.066110	
8.38306	 57.100479	
8.41633	 57.088167	
8.4496	 57.094489	
8.48286	 57.117495	
8.51613	 56.974968	
8.5494	 56.988201	
8.58266	 56.981156	
8.61593	 56.945488	
8.64919	 56.987447	
8.68246	 56.953461	
8.71573	 57.043266	
8.74899	 57.047724	
8.78226	 57.085366	
8.81552	 57.147469	
8.84879	 57.184437	
8.88206	 57.181768	
8.91532	 57.221186	
8.94859	 57.278682	
8.98185	 57.497690	
9.01512	 57.428370	
9.04839	 57.591679	
9.08165	 57.727745	
9.11492	 57.767600	
9.14819	 57.875952	
9.18145	 57.896897	
9.21472	 58.290289	
9.24798	 58.279101	
9.28125	 58.487079	
9.31452	 58.390318	
9.34778	 58.478367	
9.38105	 58.589599	
9.41431	 58.879786	
9.44758	 58.735686	
9.48085	 58.295243	
9.51411	 57.953862	
9.54738	 70.813693	
9.58065	 71.934105	
9.61391	 73.300303	
9.64718	 74.397216	
9.68044	 75.137199	
9.71371	 75.476942	
9.74698	 75.412124	
9.78024	 74.979106	
9.81351	 74.733616	
9.84677	 74.746645	
9.88004	 74.796388	
9.91331	 74.916886	
9.94657	 75.010510	
9.97984	 75.083195	
10.0131	 75.093405	
10.0464	 75.172424	
10.0796	 75.259330	
10.1129	 75.321808	
10.1462	 75.442331	
10.1794	 75.488836	
10.2127	 75.483810	
10.246	 75.363070	
10.2792	 75.346078	
10.3125	 75.341510	
10.3458	 75.227253	
10.379	 74.968938	
10.4123	 74.683333	
10.4456	 74.948291	
10.4788	 75.071698	
10.5121	 74.709849	
10.5454	 74.626100	
10.5786	 74.622982	
10.6119	 74.637892	
